<svg width="170" height="23" viewBox="0 0 170 23" fill="none" xmlns="http://www.w3.org/2000/svg">
<path d="M21.6463 1.82277H18.8284V22.536H16.9071L4.32285 2.61815V21.1441H7.90921V22.5029H0V21.1441H2.81785V1.78962H0V0.430842H4.80316L17.2914 20.1499V1.78962H13.705V0.430842H21.6463V1.82277Z" fill="white"/>
<path d="M35.2873 23C28.9471 23 24.6883 18.1945 24.6883 11.5C24.6883 4.77234 28.9151 0 35.2873 0H116.076C122.417 0 126.675 4.80548 126.675 11.5C126.675 18.2277 122.449 23 116.076 23H35.2873ZM116.076 21.4424C121.392 21.4424 124.978 17.2003 124.978 11.5C124.978 5.79972 121.392 1.55764 116.076 1.55764H35.2873C29.9718 1.55764 26.3854 5.79972 26.3854 11.5C26.3854 17.2003 29.9718 21.4424 35.2873 21.4424H116.076Z" fill="white"/>
<path d="M139.196 22.536H129.749V21.1772H132.567V1.82277H129.749V0.463975H138.811C143.422 0.463975 145.76 2.48559 145.76 6.19741C145.76 8.88185 144.575 10.5721 141.885 11.2017C145.152 11.7651 146.753 13.7868 146.753 16.8357C146.785 20.2161 144.735 22.536 139.196 22.536ZM138.523 1.82277H134.168V10.5058H138.715C142.334 10.5058 144.127 9.11384 144.127 6.32997C144.127 3.41355 142.558 1.82277 138.523 1.82277ZM139.068 21.1772C143.262 21.1772 145.12 19.5533 145.12 16.67C145.12 13.4885 142.942 11.8646 138.876 11.8646H134.168V21.1772H139.068Z" fill="white"/>
<path d="M148.61 22.536V21.1772H150.787L158.28 0.463975H160.234L167.823 21.1772H170V22.536H162.571V21.1772H166.093L163.916 15.1787H154.566L152.42 21.1772H155.783V22.536H148.61ZM155.014 13.8862H163.436L159.209 2.22047L155.014 13.8862Z" fill="white"/>
</svg>
