<svg width="25" height="25" viewBox="0 0 25 25" fill="none" xmlns="http://www.w3.org/2000/svg">
<path d="M24.0322 24.0322C24.4893 23.5752 24.4893 22.7373 24.0322 22.2803L13.9014 12.1494L24.0322 2.09473C24.4893 1.6377 24.4893 0.799805 24.0322 0.342773C23.5752 -0.114258 22.7373 -0.114258 22.2803 0.342773L12.2256 10.4736L2.09473 0.342773C1.6377 -0.114258 0.799805 -0.114258 0.342773 0.342773C-0.114258 0.799805 -0.114258 1.6377 0.342773 2.09473L10.4736 12.1494L0.342773 22.2803C-0.114258 22.7373 -0.114258 23.5752 0.342773 24.0322C0.799805 24.4893 1.6377 24.4893 2.09473 24.0322L12.2256 13.9014L22.2803 24.0322C22.7373 24.4893 23.5752 24.4893 24.0322 24.0322Z" fill="white"/>
</svg>
