<svg width="201" height="45" viewBox="0 0 201 45" fill="none" xmlns="http://www.w3.org/2000/svg">
<path d="M200.156 36.8623V37.3317H66.1348V36.8623H200.156Z" fill="black"/>
<path d="M15.4372 24.1813C15.9067 24.4161 15.9067 25.1202 16.3761 25.5896L16.6108 26.9979L15.4372 28.6409C14.029 29.345 12.1513 29.5797 10.9777 28.6409C10.2736 27.9367 10.0389 26.9979 10.2736 26.2938L10.743 24.8855C10.9777 24.6508 11.4471 24.6508 11.6818 24.4161C12.386 23.9466 13.0901 24.1813 14.029 23.9466C14.2637 23.7119 15.2025 23.4772 15.4372 24.1813Z" fill="black"/>
<path d="M11.917 32.8687C12.3864 32.8687 12.6211 33.1034 13.0905 33.1034C13.56 33.3381 13.56 34.0422 14.2641 34.0422C14.7335 34.9811 14.9682 35.9199 15.203 36.8588C14.9682 37.3282 15.4377 37.7976 15.4377 38.2671H15.6724C15.6724 38.7365 15.6724 39.4406 15.4377 39.9101C15.4377 40.8489 14.9682 41.7878 14.7335 42.4919C14.4988 42.7266 14.2641 43.196 13.7947 43.196C13.0905 43.4307 13.0905 44.6043 12.1517 44.3696C11.6823 44.839 10.7434 44.6043 10.0393 44.6043C9.56986 44.3696 9.10043 44.3696 8.86572 44.1349C8.16158 43.9002 7.45744 43.4307 6.98802 42.7266C6.7533 42.2572 6.28388 42.0225 6.04917 41.3183C6.28388 40.6142 5.81445 39.9101 6.04917 39.2059L5.81445 38.0324L6.28388 35.9199C6.98802 35.4505 6.7533 34.5117 7.45744 34.277C7.92687 33.1034 9.10043 32.8687 9.80457 32.3993C10.0393 32.3993 10.5087 32.3993 10.7434 32.1646C11.2128 32.634 11.6823 33.1034 11.917 32.8687Z" fill="black"/>
<path d="M49.94 0.47552C49.7053 3.76149 47.1235 5.87391 45.7152 8.69046C45.011 10.3334 43.6028 11.2723 42.6639 12.9153C41.7251 13.8541 40.7862 15.0277 40.0821 15.9665C40.3168 16.6707 41.0209 16.9054 41.4904 17.6095C42.4292 18.3137 42.6639 19.4872 43.6028 20.1914C44.0722 20.1914 44.0722 20.8955 44.7763 20.8955C45.9499 22.3038 47.1235 23.7121 48.0623 25.1203C48.297 25.5898 48.5317 26.0592 49.0011 26.5286C49.7053 27.7022 50.4094 28.8757 51.3483 30.284C51.3483 31.6923 52.5218 32.6311 52.9913 33.8047C53.4607 34.5088 53.6954 35.213 54.1648 35.9171C54.869 37.5601 55.3384 39.2031 56.2772 40.6114C56.512 41.0808 56.2772 41.3155 56.0425 41.5502C55.8078 41.7849 55.5731 41.3155 55.1037 41.3155C53.226 40.6114 51.3483 39.6725 49.7053 38.4989C47.8276 37.0907 45.9499 35.9171 44.0722 34.5088C43.3681 34.2741 43.1333 33.57 42.4292 33.1006C40.7862 31.927 39.3779 30.5187 37.5002 29.5799C36.7961 28.8757 35.8573 28.4063 35.1531 27.7022C34.449 27.7022 34.449 26.998 33.7448 26.7633C32.3366 26.0592 31.163 24.8856 29.9894 24.1815V24.8856C29.0506 25.8245 29.2853 26.998 28.8159 27.9369C28.8159 29.3452 27.877 30.284 27.4076 31.4576C26.234 33.3353 25.2952 35.4477 24.1216 37.3254C22.7134 39.4378 21.7745 41.7849 19.6621 43.4279C19.1927 43.8973 18.7232 44.3668 18.0191 44.6015C17.7844 44.6015 17.315 44.6015 17.315 44.3668C17.0803 43.8973 17.315 43.1932 17.0803 42.7238C17.315 42.0196 17.0803 41.3155 17.315 40.6114V40.3766C17.315 39.4378 17.7844 38.4989 17.5497 37.3254C17.7844 36.6212 18.0191 35.9171 18.0191 35.213C18.2538 34.2741 18.7232 33.3353 18.7232 32.3964C18.958 31.927 19.1927 31.2229 18.958 30.5187C19.1927 29.8146 19.1927 29.1104 19.8968 28.641V27.4675C20.6009 25.5898 21.3051 23.7121 21.7745 21.8344L21.3051 21.3649C19.8968 21.3649 18.7232 21.5996 17.315 21.1302C15.2026 21.1302 13.0902 20.8955 10.9777 20.4261C10.2736 20.1914 9.10004 20.4261 8.3959 19.9567C7.92648 19.9567 7.45705 19.9567 6.98763 19.7219C6.04878 19.2525 4.87522 19.2525 3.93637 18.7831C3.23223 18.7831 2.7628 18.3137 2.05867 18.3137C1.35453 18.3137 1.11982 17.8442 0.650391 17.3748V17.1401C1.82395 15.4971 3.70165 15.0277 5.34464 14.5583C6.98763 14.0888 8.86532 14.0888 10.5083 13.6194C11.6819 13.3847 12.8554 13.8541 13.7943 13.6194C15.672 13.6194 17.7844 14.0888 19.6621 14.0888C20.3662 14.0888 20.8357 14.5583 21.5398 14.5583V14.3236L19.6621 11.7417C18.958 10.0987 17.7844 8.69046 17.315 7.04747C16.8455 6.57804 17.315 5.87391 17.0803 5.16977C17.0803 4.93506 17.315 4.70035 17.315 4.46563C17.7844 4.23092 18.2538 4.46563 18.4885 4.23092C19.6621 4.46563 20.8357 4.93506 22.0092 5.16977C23.1828 5.63919 24.5911 6.10862 25.5299 7.04747C26.9382 7.98632 28.5812 8.69046 29.52 10.0987C29.7547 10.3334 30.2242 10.3334 30.6936 10.3334C30.9283 10.3334 31.163 9.86402 31.3977 9.86402C32.806 8.92517 34.449 8.45574 35.8573 7.51689C36.3267 7.04747 37.2655 6.81276 37.735 6.10862L39.1432 5.40448C39.8474 4.93506 40.7862 4.23092 41.7251 3.76149C42.1945 3.76149 42.6639 3.52678 42.8986 3.29207C44.3069 2.58793 45.9499 1.8838 47.1235 0.944947C47.3582 0.240809 48.297 0.240807 49.0011 0.240807C49.4706 0.240807 49.94 0.00609499 49.94 0.47552Z" fill="black"/>
<path d="M164.714 27.9308C164.245 28.1655 163.541 28.4002 162.602 28.4002C161.194 28.4002 160.02 27.2266 160.02 25.8183C160.02 23.7059 161.663 23.0018 163.071 23.0018C163.541 23.0018 164.245 23.0018 164.714 23.2365V27.9308ZM159.081 19.9505C159.785 18.777 160.724 18.3075 162.367 18.3075C164.48 18.3075 164.714 20.1852 164.714 22.0629H163.306C160.255 22.0629 156.969 23.4712 156.969 26.7572C156.969 29.1043 159.081 30.5126 161.428 30.5126C162.837 30.5126 164.01 29.8084 164.949 28.8696C165.418 29.5737 166.357 30.2779 167.531 30.5126L169.878 28.6349L169.408 28.1655C169.174 28.1655 168.939 28.4002 168.704 28.4002C168 28.4002 167.766 27.9308 167.766 26.5225V25.3489C167.766 23.4712 168 21.8282 168 20.6547C168 17.3687 165.418 16.6646 162.602 16.6646C161.194 16.6646 159.785 16.8993 158.377 17.134V20.1852H159.081V19.9505Z" fill="black"/>
<path d="M87.0248 11.7433H85.6166C84.6777 8.69204 81.3917 7.28376 78.5752 7.28376C72.7074 7.28376 70.3603 11.978 70.3603 17.6111C70.3603 26.9996 77.1669 28.6426 79.9835 28.6426C82.5653 28.6426 85.1471 27.469 86.5554 25.1219L87.4943 25.5913L86.5554 29.3467C83.9736 29.8162 82.3306 30.0509 79.9835 30.0509C70.1255 30.0509 65.666 23.9483 65.666 17.8458C65.666 11.0392 71.0644 5.87549 78.3405 5.87549C82.5653 5.87549 84.2083 6.57963 86.7901 7.28376L87.0248 11.7433Z" fill="black"/>
<path d="M90.7803 19.9597V16.9084C92.1886 16.439 93.3622 16.439 95.0052 16.439C97.8217 16.439 100.404 17.1431 100.404 20.4291C100.404 21.6026 100.404 23.2456 100.169 25.1233V26.2969C100.169 27.7052 100.404 28.1746 101.108 28.1746C101.342 28.1746 101.577 28.1746 101.812 27.9399L102.281 28.4093L99.9341 30.287C98.7606 30.0523 97.8217 29.5829 97.3523 28.644C96.1787 29.3482 95.2399 30.287 93.8316 30.287C91.7192 30.287 89.3721 28.8787 89.3721 26.5316C89.3721 23.0109 92.658 21.8374 95.7093 21.8374H97.1176C97.1176 20.1944 96.8829 18.082 94.7705 18.082C93.1275 18.082 92.4233 18.5514 91.4845 19.7249H90.7803V19.9597ZM97.1176 23.2456C96.6482 23.2456 96.1787 23.0109 95.4746 23.0109C94.0663 23.0109 92.4233 23.7151 92.4233 25.8275C92.4233 27.2357 93.5969 28.4093 95.0052 28.4093C95.944 28.4093 96.6482 28.1746 97.1176 27.9399V23.2456Z" fill="black"/>
<path d="M107.68 16.4319C107.68 17.8402 107.914 20.6568 107.914 23.2386V27.9328C107.914 29.1064 108.384 29.1064 109.088 29.3411V30.0453H103.689V29.3411C104.394 29.1064 104.863 28.8717 104.863 27.9328V23.9427C104.863 21.5956 104.628 20.1873 104.394 19.7179C104.159 19.0138 103.924 18.7791 102.985 18.7791V18.0749C104.394 17.6055 106.271 17.1361 107.21 16.4319H107.68ZM106.037 10.7988C106.975 10.7988 107.914 11.503 107.914 12.4418C107.914 13.3807 106.975 14.0848 106.037 14.0848C105.098 14.0848 104.159 13.3807 104.159 12.4418C104.159 11.503 105.098 10.7988 106.037 10.7988Z" fill="black"/>
<path d="M110.73 29.5737C111.669 29.339 112.373 28.6349 112.843 28.1655L115.894 24.1753L112.138 19.0117C111.434 18.3075 111.2 18.0728 110.261 17.6034V16.8993H116.129V17.6034C115.659 17.8381 115.424 17.8381 115.424 18.3075C115.424 18.5423 115.424 19.0117 115.894 19.2464L117.772 21.5935L119.415 19.4811C119.649 19.0117 119.884 18.5423 119.884 18.3075C119.884 17.6034 119.415 17.3687 118.945 17.3687V16.6646H124.109V17.3687C122.935 17.6034 122.231 18.5423 121.527 19.2464L118.71 22.7671L122.231 27.696C122.7 28.4002 123.405 29.1043 124.343 29.339V30.0432H118.71V29.339C119.18 29.339 119.415 28.8696 119.415 28.6349C119.415 28.4002 119.18 27.9307 118.945 27.4613L117.302 24.8795L115.659 27.2266C115.424 27.4613 115.19 28.1655 115.19 28.4002C115.19 28.8696 115.424 29.1043 115.894 29.1043V29.8084H111.2V29.5737H110.73Z" fill="black"/>
<path d="M126.456 19.9597V16.9084C127.864 16.439 129.038 16.439 130.681 16.439C133.498 16.439 136.079 17.1431 136.079 20.4291C136.079 21.6026 136.079 23.2456 135.845 25.1233V26.2969C135.845 27.7052 136.079 28.1746 136.783 28.1746C137.018 28.1746 137.253 28.1746 137.488 27.9399L137.957 28.4093L135.61 30.287C134.436 30.0523 133.498 29.5829 133.028 28.644C131.855 29.3482 130.916 30.287 129.507 30.287C127.395 30.287 125.048 28.8787 125.048 26.5316C125.048 23.0109 128.334 21.8374 131.385 21.8374H133.028C133.028 20.1944 132.793 18.082 130.681 18.082C129.038 18.082 128.334 18.5514 127.395 19.7249H126.456V19.9597ZM133.028 23.2456C132.559 23.2456 132.089 23.0109 131.385 23.0109C129.977 23.0109 128.334 23.7151 128.334 25.8275C128.334 27.2357 129.507 28.4093 130.916 28.4093C131.855 28.4093 132.559 28.1746 133.028 27.9399V23.2456Z" fill="black"/>
<path d="M144.764 9.39464C144.764 8.6905 145.233 8.6905 146.172 8.6905C149.693 8.6905 151.101 10.5682 151.101 13.3848C151.101 16.2013 149.223 18.079 146.172 18.079H144.764V9.39464ZM141.009 27.4675C141.009 28.8758 140.539 29.3452 139.131 29.5799V30.0493H147.581C151.101 30.0493 155.326 28.6411 155.326 24.4162C155.326 21.1303 153.214 19.2526 150.162 18.5484C152.509 17.8443 154.857 15.9666 154.857 13.15C154.857 8.92521 150.397 7.28223 146.876 7.28223C146.172 7.28223 145.468 7.51694 143.825 7.51694C142.417 7.51694 141.243 7.28223 139.6 7.28223V7.98637C140.539 8.22108 141.009 8.45579 141.009 9.62935V27.4675ZM144.529 19.2526H146.172C149.223 19.2526 151.101 21.365 151.101 24.4162C151.101 26.9981 149.458 28.8758 146.642 28.8758C144.529 28.8758 144.295 28.6411 144.295 26.7634V19.2526H144.529Z" fill="black"/>
<path d="M170.348 19.0198C171.287 19.0198 171.756 19.4892 171.756 20.4281C171.756 21.3669 171.991 23.2446 171.991 25.1223V28.4083C171.991 29.5818 171.521 29.5819 170.817 30.0513V30.7554H176.45V30.0513C175.511 30.0513 175.277 29.5818 175.277 28.4083V20.1934C175.277 19.0198 177.389 18.7851 178.093 18.7851C180.44 18.7851 180.675 21.1322 180.675 23.0099V28.643C180.675 29.8166 180.44 30.0513 179.501 30.286V30.9901H184.9V30.286C183.961 30.0513 183.726 29.8166 183.726 28.643V21.8363C183.726 19.0198 182.553 17.1421 179.267 17.1421C177.858 17.1421 176.45 17.8462 175.277 18.7851V17.1421H174.572C173.399 17.8462 172.225 18.3156 170.348 18.7851V19.0198Z" fill="black"/>
<path d="M200.156 29.8187C199.217 29.584 198.044 28.4104 197.574 27.941L192.645 22.3079L195.227 19.726C195.931 19.0219 197.105 18.0831 198.278 17.8483V17.1442H193.349V17.8483C193.584 18.0831 193.819 18.3178 193.819 18.7872C193.819 19.2566 193.584 19.726 192.88 20.1955L190.298 22.7773V7.521H189.594C188.42 8.45985 187.012 9.16398 185.369 9.39869V10.1028C186.073 10.1028 187.012 10.807 187.012 12.2152C187.012 13.3888 187.247 15.9706 187.247 17.8483V28.4104C187.247 29.1145 187.012 29.8187 186.073 29.8187V30.5228H191.472V29.8187C190.768 29.584 190.298 29.3493 190.298 28.4104V23.9509L193.584 27.7063C194.054 28.4104 194.523 29.1145 194.523 29.3493C194.523 29.584 194.288 29.8187 194.053 29.8187V30.5228H200.156V29.8187Z" fill="black"/>
<path d="M200.156 36.623V37.0925H66.1348V36.623H200.156Z" fill="black"/>
</svg>
