<svg width="171" height="35" viewBox="0 0 171 35" fill="none" xmlns="http://www.w3.org/2000/svg">
<path d="M10.8152 0.831055C4.80677 0.831055 0 5.63782 0 11.6463C0 17.6547 4.80677 22.4615 10.8152 22.4615C16.8237 22.4615 21.6305 17.6547 21.6305 11.6463C21.6305 5.63782 16.8237 0.831055 10.8152 0.831055ZM13.8195 16.2528C13.0183 16.6533 12.0169 16.6533 11.2158 16.6533H6.80959V6.63923H11.2158C12.0169 6.63923 12.818 6.63923 13.4189 7.0398C14.22 7.64064 14.6206 8.24149 14.6206 9.2429C14.6206 10.4446 13.8195 11.0454 12.818 11.446C14.0197 11.6463 14.8209 12.6477 14.8209 13.8494C15.0211 14.8508 14.4203 15.6519 13.8195 16.2528Z" fill="black"/>
<path d="M12.0168 10.45C12.2171 10.2497 12.4174 9.84915 12.4174 9.64887C12.4174 9.24831 12.2171 8.84774 12.0168 8.84774C11.6163 8.64746 11.0154 8.64746 10.6149 8.64746H9.21289V10.8506H10.8151C11.0154 10.8506 11.6163 10.8506 12.0168 10.45Z" fill="black"/>
<path d="M12.0169 12.6427C11.6164 12.4424 11.2158 12.4424 10.8152 12.4424H9.0127V14.8458H10.6149C11.0155 14.8458 11.6164 14.8458 12.0169 14.6455C12.4175 14.4452 12.6178 14.0446 12.6178 13.6441C12.6178 13.2435 12.4175 12.8429 12.0169 12.6427Z" fill="black"/>
<path d="M42.8599 18.2556C40.8571 17.0539 37.8528 16.4531 35.6497 15.8523C34.0475 15.652 31.6441 15.0511 31.6441 13.0483C31.6441 10.8452 33.8472 10.4446 35.4494 10.4446C37.8528 10.4446 39.4551 11.446 40.2562 13.6491L45.8641 11.8466C44.2619 7.03984 40.2562 5.2373 35.2492 5.2373C32.6455 5.2373 30.2421 5.83815 28.2393 7.44041C26.2365 9.04266 25.2351 11.446 25.2351 14.0497C25.2351 20.0582 30.0418 21.6604 35.0489 22.6618C36.6511 23.0624 39.8556 23.463 39.8556 25.8664C39.8556 28.2697 37.4523 28.8706 35.4494 28.8706C32.6455 28.8706 30.4424 27.8692 29.6413 24.8649L23.6328 26.2669C24.8345 31.6745 29.6413 33.8776 34.8486 33.8776C37.6526 33.8776 40.6568 33.2768 42.8599 31.6745C45.063 30.0723 46.2647 27.4686 46.2647 24.6647C46.465 22.061 45.2633 19.6576 42.8599 18.2556Z" fill="black"/>
<path d="M66.4936 20.8532C66.4936 18.4498 66.6939 16.0464 64.4908 14.4441C62.8885 13.0422 60.0846 12.6416 57.8815 12.6416C53.4753 12.6416 48.6685 14.0436 48.0676 19.0506L53.6755 19.6515C53.6755 17.6487 55.2778 16.6472 57.2806 16.6472C58.0817 16.6472 59.0831 16.8475 59.684 17.6487C60.2848 18.4498 60.2848 19.4512 60.2848 20.4526V20.6529C57.6812 20.8532 54.4767 21.0534 52.0733 21.8546C49.2693 22.856 47.4668 24.8588 47.4668 28.0633C47.4668 31.8687 50.2707 33.8715 53.8758 33.8715C56.88 33.8715 58.6826 32.6698 60.4851 30.2664C60.4851 31.2678 60.4851 32.4695 60.6854 33.4709H66.6939C66.2933 32.4695 66.2933 31.4681 66.2933 30.4667V20.8532H66.4936ZM60.2848 24.4582C60.2848 25.8602 60.2848 27.0619 59.4837 28.4639C58.8829 29.4653 57.6812 30.0661 56.4795 30.0661C54.8772 30.0661 53.8758 29.0647 53.8758 27.2622C53.8758 24.258 58.0817 23.6571 60.2848 23.4568V24.4582Z" fill="black"/>
<path d="M81.3144 12.6436C78.911 12.6436 77.3088 13.645 76.3074 15.6478L76.1071 5.83398H70.0986V33.6732H73.3031C73.7037 32.6718 73.904 31.4701 74.7051 30.4687C76.1071 32.8721 77.7094 34.0737 80.5133 34.0737C86.722 34.0737 88.9251 28.8664 88.9251 23.4588C88.9251 18.4517 87.1226 12.6436 81.3144 12.6436ZM79.3116 29.8678C78.3102 29.8678 77.3088 29.267 76.7079 28.4659C76.1071 27.4644 76.1071 26.0625 76.1071 25.0611V22.0568C76.1071 19.8537 76.5077 16.8495 79.3116 16.8495C82.5161 16.8495 82.5161 21.0554 82.5161 23.4588C82.7164 25.4616 82.7164 29.8678 79.3116 29.8678Z" fill="black"/>
<path d="M109.354 20.8532C109.354 18.4498 109.554 16.0464 107.551 14.4441C105.749 13.0422 102.945 12.6416 100.942 12.6416C96.5358 12.6416 91.729 14.0436 91.1282 19.0506L96.7361 19.6515C96.7361 17.6487 98.3383 16.6472 100.341 16.6472C101.142 16.6472 102.144 16.8475 102.745 17.6487C103.345 18.4498 103.345 19.4512 103.345 20.4526V20.6529C100.742 20.8532 97.5372 21.0534 95.1338 21.8546C92.3299 22.856 90.5273 24.8588 90.5273 28.0633C90.5273 31.8687 93.3313 33.8715 96.9364 33.8715C99.9406 33.8715 101.743 32.6698 103.546 30.2664C103.546 31.2678 103.546 32.4695 103.746 33.4709H109.754C109.354 32.4695 109.354 31.4681 109.354 30.4667V20.8532ZM103.145 24.4582C103.145 25.8602 103.145 27.0619 102.344 28.4639C101.743 29.4653 100.541 30.0661 99.3397 30.0661C97.7375 30.0661 96.7361 29.0647 96.7361 27.2622C96.7361 24.258 100.942 23.6571 103.145 23.4568V24.4582Z" fill="black"/>
<path d="M124.576 15.2472C123.374 13.2444 121.772 12.6436 119.369 12.6436C113.36 12.6436 111.758 18.652 111.758 23.6591C111.758 28.4659 113.36 34.0737 119.168 34.0737C121.772 34.0737 123.574 32.6718 124.576 30.4687V33.6732H130.184V5.83398H124.175V15.2472H124.576ZM124.576 24.8608C124.576 25.8622 124.576 27.0639 123.975 27.865C123.574 28.8664 122.573 29.4673 121.371 29.4673C118.367 29.4673 118.167 25.6619 118.167 23.4588C118.167 21.0554 118.367 16.4489 121.772 16.4489C124.576 16.4489 124.576 19.8537 124.576 21.8565V24.8608Z" fill="black"/>
<path d="M152.815 24.258C152.815 21.454 152.415 18.6501 150.812 16.2467C149.21 13.8433 146.206 12.6416 143.202 12.6416C136.793 12.6416 133.188 17.4484 133.188 23.6571C133.188 29.8659 137.193 34.0718 143.402 34.0718C150.412 34.0718 152.815 28.0633 152.815 27.0619L147.408 26.6613C147.408 28.4639 145.605 29.8658 143.802 29.8658C141.199 29.8658 139.797 27.863 139.797 25.4597V24.4582H152.815V24.258ZM143.402 16.447C146.006 16.447 146.807 18.4498 146.807 20.6529H139.597C139.797 18.4498 140.798 16.447 143.402 16.447Z" fill="black"/>
<path d="M161.427 5.83398V33.6732H155.419V5.83398H161.427Z" fill="black"/>
<path d="M170.24 5.83398V33.6732H164.231V5.83398H170.24Z" fill="black"/>
</svg>
