<svg width="72" height="39" viewBox="0 0 72 39" fill="none" xmlns="http://www.w3.org/2000/svg">
<path fill-rule="evenodd" clip-rule="evenodd" d="M0.819336 37.5655L6.75985 11.5969H15.8403L11.9366 29.8428H16.9436L15.5009 37.9898L0.819336 37.5655ZM17.8771 38.2444L23.6479 11.5969H37.2262L38.1597 38.2444H31.2857L30.5219 33.6617H26.6181L25.3452 38.1595H17.8771V38.2444ZM27.3819 27.3817H30.6916L29.9278 17.9618L27.3819 27.3817ZM41.8089 11.9364V38.3292H55.7266L62.4309 11.9364H53.6899L50.2104 28.485V12.0213L41.8089 11.9364ZM59.6304 38.1595L68.3714 0.649414H82.2892L91.2 38.1595H81.0162L80.0827 32.3887H71.0022L70.7477 38.1595H59.6304ZM72.9541 23.6477H78.046L75.5849 9.22073L72.9541 23.6477ZM88.2297 11.5969L89.927 20.1682L95.6978 20.338L93.661 38.1595H109.955L108.512 30.352H103.505L105.372 11.5969H88.2297ZM106.9 11.7667L108.173 19.7439H113.774L112.416 37.82H128.116L127.183 30.2671H122.345L123.873 12.1061L106.9 11.7667ZM130.153 11.7667L129.983 38.0746H138.13V33.8314H141.44L142.373 38.0746H150.011L144.834 11.7667H130.153ZM137.366 27.7212H140.676L138.3 18.471L137.366 27.7212Z" fill="black"/>
</svg>
