<svg width="121" height="31" viewBox="0 0 121 31" fill="none" xmlns="http://www.w3.org/2000/svg">
<path fill-rule="evenodd" clip-rule="evenodd" d="M47.7915 19.3014C47.7915 13.0249 43.3128 7.94482 37.3178 7.94482C31.3228 7.94482 26.4795 13.0249 26.4795 19.3014C26.4795 25.5779 31.3228 30.6516 37.3178 30.6516C42.8842 30.6516 46.0768 27.7853 47.4908 23.2426H42.5259C42.0498 24.2143 41.3076 25.0308 40.3856 25.5971C39.4636 26.1634 38.3998 26.4563 37.3178 26.4417C34.6306 26.4417 32.3721 24.2023 31.7067 21.1697H47.6507C47.7463 20.5666 47.7933 19.9568 47.7915 19.3462V19.3014ZM31.7963 17.0621C32.5577 14.2277 34.7394 12.1804 37.3114 12.1804C39.8835 12.1804 41.9692 14.2597 42.4683 17.0749H31.7963V17.0621Z" fill="black"/>
<path fill-rule="evenodd" clip-rule="evenodd" d="M117.696 23.2456C117.171 23.2456 116.658 23.4013 116.221 23.6931C115.784 23.9848 115.444 24.3995 115.243 24.8847C115.042 25.3699 114.99 25.9038 115.092 26.4188C115.194 26.9339 115.447 27.407 115.819 27.7783C116.19 28.1497 116.663 28.4025 117.178 28.505C117.693 28.6074 118.227 28.5549 118.712 28.3539C119.197 28.1529 119.612 27.8126 119.904 27.376C120.196 26.9393 120.351 26.426 120.351 25.9008C120.351 25.1966 120.072 24.5212 119.574 24.0233C119.076 23.5253 118.4 23.2456 117.696 23.2456ZM117.696 28.3257C117.379 28.3266 117.065 28.2642 116.772 28.1423C116.479 28.0203 116.214 27.8412 115.991 27.6155C115.768 27.3897 115.592 27.1218 115.474 26.8274C115.356 26.5329 115.298 26.218 115.303 25.9008C115.311 25.4308 115.457 24.9735 115.724 24.5862C115.99 24.199 116.365 23.8991 116.801 23.7241C117.238 23.5492 117.716 23.507 118.176 23.6029C118.636 23.6987 119.058 23.9284 119.388 24.2629C119.718 24.5975 119.942 25.0222 120.032 25.4836C120.122 25.9451 120.073 26.4227 119.893 26.8567C119.712 27.2906 119.407 27.6616 119.016 27.9229C118.626 28.1842 118.166 28.3244 117.696 28.3257Z" fill="black"/>
<path fill-rule="evenodd" clip-rule="evenodd" d="M112.712 19.3014C112.712 13.0249 108.234 7.94482 102.239 7.94482C96.2437 7.94482 91.4004 13.0249 91.4004 19.3014C91.4004 25.5779 96.2501 30.6516 102.239 30.6516C107.805 30.6516 111.273 28.1947 112.405 23.2426H107.44C106.966 24.2143 106.225 25.031 105.304 25.5974C104.383 26.1638 103.32 26.4566 102.239 26.4417C99.5515 26.4417 97.2866 24.2023 96.6276 21.1697H112.578C112.67 20.5662 112.717 19.9567 112.719 19.3462L112.712 19.3014ZM96.7172 17.0621C97.4722 14.2277 99.6539 12.1804 102.232 12.1804C104.811 12.1804 106.884 14.2597 107.389 17.0749H96.7172V17.0621Z" fill="black"/>
<path fill-rule="evenodd" clip-rule="evenodd" d="M67.6638 0.858398H18.5265V21.2939H18.4433L6.18463 0.858398H0.663086V30.0464H6.2806V10.865H6.36377L18.1234 30.0464H24.144V5.04914H67.683L67.6638 0.858398Z" fill="black"/>
<path fill-rule="evenodd" clip-rule="evenodd" d="M54.5865 14.0309C54.5865 13.1096 55.6294 11.4013 58.6813 11.4013C62.1554 11.4013 62.8528 13.8454 63.0896 14.6644H67.7921C67.3507 9.1876 62.5521 7.62646 58.3806 7.62646C51.7138 7.62646 49.7496 11.9132 49.7496 15.0418C49.7496 23.033 63.3583 19.7828 63.3583 24.1911C63.3583 26.0785 62.1746 26.8527 58.6941 26.8527C55.2135 26.8527 54.0363 25.074 54.0363 23.2634H49.5576C49.7176 28.9641 54.0363 30.7427 58.9244 30.7427C63.1087 30.7427 68.5215 29.5271 68.5215 23.3082C68.5215 15.0354 54.5097 18.2281 54.6057 14.0565L54.5865 14.0309Z" fill="black"/>
<path fill-rule="evenodd" clip-rule="evenodd" d="M76.1471 0.818359H70.8047V8.98231H69.1924V12.9939H70.8047V22.1176C70.8047 24.8879 72.9609 29.9296 77.8426 29.9296C78.7639 29.9296 81.2144 29.8464 81.2144 29.8464V26.046H80.0499C78.0345 25.95 76.1663 24.8559 76.1663 21.401V12.9811H81.2272V8.98231H76.1791V0.818359H76.1471Z" fill="black"/>
<path fill-rule="evenodd" clip-rule="evenodd" d="M83.6074 30.0469H89.2249V0.858887H83.6074V30.0469Z" fill="black"/>
<path fill-rule="evenodd" clip-rule="evenodd" d="M111.452 0.513184L92.4756 2.61175V4.98544H111.452V0.513184Z" fill="black"/>
<path fill-rule="evenodd" clip-rule="evenodd" d="M118.132 26.0163C118.242 26.018 118.351 25.9979 118.453 25.9573C118.555 25.9166 118.647 25.8562 118.726 25.7795C118.804 25.7028 118.867 25.6113 118.91 25.5102C118.953 25.4092 118.975 25.3007 118.976 25.1909C118.976 24.6215 118.663 24.3208 117.953 24.3208H116.775V27.4623H117.044V26.0099H117.863L118.804 27.4623H119.104L118.164 26.0163H118.132ZM117.678 25.7732H117.038V24.5511H117.901C118.279 24.5511 118.701 24.6919 118.701 25.1909C118.701 25.69 118.183 25.786 117.703 25.786L117.678 25.7732Z" fill="black"/>
</svg>
