<svg width="162" height="47" viewBox="0 0 162 47" fill="none" xmlns="http://www.w3.org/2000/svg">
<path d="M12.3685 36.2004C12.3685 38.8313 11.3162 42.4092 8.05393 42.5145C6.47541 42.4092 5.42306 41.6726 5.42306 39.9888C5.42306 36.8318 10.0534 36.2004 12.3685 36.2004ZM16.9989 45.461V30.5177C17.1041 25.6769 13.8418 23.9932 9.42198 23.9932C5.10736 23.9932 1.42414 25.8874 1.42414 30.6229H6.1597C6.1597 28.5183 7.31728 27.3607 9.42198 27.3607C11.8424 27.3607 12.3685 29.1497 12.3685 31.1491V33.2538C7.63299 33.359 0.6875 34.0957 0.6875 40.4098C0.792735 43.9878 3.52884 45.882 6.89635 45.882C9.21151 45.882 11.3162 45.0401 12.3685 43.0406H12.4738V45.461H16.9989Z" fill="black"/>
<path d="M31.416 31.676C31.416 29.5713 30.7846 27.4666 28.2589 27.4666C25.2071 27.4666 24.26 30.7289 24.26 33.2545C24.3652 38.5163 27.3118 42.5152 32.8893 42.6204C34.0468 42.5152 35.2044 42.41 36.362 42.0942V45.0408C34.4678 45.6722 32.3631 46.0932 30.2584 46.0932C22.7867 46.0932 19.1035 41.4628 19.1035 34.2016C19.1035 28.098 22.3658 24.0991 28.6799 24.0991C33.7311 24.0991 36.6777 26.6248 36.6777 31.7813H31.416V31.676Z" fill="black"/>
<path d="M50.2531 31.676C50.2531 29.5713 49.6217 27.4666 47.0961 27.4666C44.0443 27.4666 43.0972 30.7289 43.0972 33.2545C43.0972 38.5163 46.149 42.5152 51.7264 42.6204C52.884 42.5152 54.1468 42.41 55.3044 42.0942V45.0408C53.4102 45.6722 51.3055 46.0932 49.2008 46.0932C41.7291 46.0932 38.0459 41.4628 38.0459 34.2016C38.0459 28.098 41.3082 24.0991 47.6223 24.0991C52.6735 24.0991 55.5149 26.6248 55.5149 31.7813H50.2531V31.676Z" fill="black"/>
<path d="M69.3007 30.8334H61.6186C61.9343 28.7287 63.5128 27.2554 65.6175 27.2554C67.9327 27.1502 69.3007 28.5183 69.3007 30.8334ZM73.9311 33.78V32.5172C73.9311 27.3607 71.3002 23.9932 65.9332 23.9932C59.7244 23.9932 56.9883 27.8868 56.9883 33.8852C57.0935 40.8307 60.1453 45.9872 67.617 45.9872C69.6164 45.9872 71.6159 45.6715 73.4049 45.1453V41.7778C72.2473 42.1988 70.774 42.5145 69.406 42.6197C64.6704 42.5145 61.5134 38.3051 61.5134 33.8852H73.9311V33.78Z" fill="black"/>
<path d="M88.453 45.4618V33.465C88.453 32.4127 88.5583 29.7818 87.7164 28.9399C87.4007 28.6242 86.7693 28.519 86.3484 28.519C82.7704 28.519 81.4023 33.465 81.4023 36.4116V45.4618H76.5615V24.5201H81.4023V28.519H81.5076C82.6651 25.8881 84.7698 24.0991 87.7164 24.0991C91.7153 24.0991 93.3991 27.3614 93.3991 31.0446V45.567H88.453V45.4618Z" fill="black"/>
<path d="M103.396 27.884V37.7761C103.396 40.1965 103.712 42.4064 106.658 42.5117C107.5 42.4064 108.237 42.3012 108.974 42.0907V45.5635C107.606 45.7739 106.343 45.8792 104.975 45.8792C100.765 45.8792 98.5553 44.5111 98.5553 40.0913V27.884H94.4512V24.5165H98.5553V19.5705L103.396 17.6763V24.6218H109.605V27.9893H103.396V27.884Z" fill="black"/>
<path d="M123.707 45.4656V41.4667H123.602C122.549 44.0976 120.339 45.8866 117.393 45.8866C113.394 45.8866 111.815 42.5191 111.815 38.9411V24.5239H116.656V36.5207C116.656 37.573 116.551 40.2039 117.393 41.0458C117.709 41.3615 118.34 41.3615 118.761 41.4667C122.234 41.3615 123.602 36.4154 123.602 33.6793V24.5239H128.443V45.4656H123.707Z" fill="black"/>
<path d="M136.65 36.3063V45.4618H131.81V24.5201H136.65V28.4137H136.756C138.439 25.5724 140.018 24.0991 143.491 24.0991V29.1504C138.439 29.1504 136.65 31.3603 136.65 36.3063Z" fill="black"/>
<path d="M156.75 30.8334H149.068C149.384 28.7287 150.962 27.2554 153.067 27.2554C155.277 27.1502 156.75 28.5183 156.75 30.8334ZM161.381 33.78V32.5172C161.381 27.3607 158.75 23.9932 153.488 23.9932C147.279 23.9932 144.543 27.8868 144.543 33.8852C144.543 40.8307 147.7 45.9872 155.066 45.9872C157.066 45.9872 159.065 45.6715 160.854 45.1453V41.7778C159.697 42.1988 158.223 42.5145 156.855 42.6197C152.12 42.5145 148.963 38.3051 148.963 33.8852H161.381V33.78Z" fill="black"/>
<path d="M94.4512 0V3.36751C94.4512 3.36751 104.238 7.15596 105.606 7.68213C104.238 8.2083 94.4512 11.9968 94.4512 11.9968V15.3643L109.71 9.15542V5.99838L94.4512 0Z" fill="black"/>
</svg>
