<svg width="187" height="47" viewBox="0 0 187 47" fill="none" xmlns="http://www.w3.org/2000/svg">
<path fill-rule="evenodd" clip-rule="evenodd" d="M23.6974 0.0810547C10.8101 0.0810547 0.331055 10.5276 0.331055 23.4475C0.331055 28.7846 2.12096 33.6987 5.11498 37.6365L24.5436 12.0897H20.378C18.165 12.0897 16.0822 12.2524 14.5852 12.5453C13.674 12.708 12.8604 13.066 12.2095 13.5216C11.4285 14.0749 10.4522 15.2139 9.83382 16.3529C9.76873 16.4831 9.6711 16.6784 9.50838 16.9387L8.36935 16.6784L10.2894 9.35602H34.6321L15.3012 35.2283C16.5704 35.1306 17.0585 35.0981 18.0674 35.0981C18.8484 35.0981 20.0525 35.1306 21.6472 35.2283L25.0968 35.4235C26.3335 35.4886 27.3749 35.5212 28.1885 35.5212C29.9784 35.5212 31.1174 35.391 32.2564 35.033C33.1351 34.7727 33.9813 34.3496 34.7623 33.8289C36.1291 32.8851 37.4309 31.3881 38.2445 29.8911C38.3096 29.7284 38.4398 29.5006 38.6025 29.2077L39.6439 29.468C39.3184 30.7372 39.1232 31.2254 38.6025 32.397C37.5611 34.7076 36.3895 36.2697 34.7623 37.4738C33.1026 38.7105 31.2801 39.2962 29.0997 39.3288H28.7743C27.1796 39.3288 25.9104 39.1986 22.0703 38.6128C18.165 38.027 16.1798 37.7992 14.1947 37.7992C12.8929 37.7992 11.6563 37.8969 10.3871 38.0921C8.69479 38.3525 8.04392 38.5477 6.51436 39.2637C10.7776 43.9175 16.9284 46.8464 23.73 46.8464C36.6498 46.8464 47.0964 36.3673 47.0964 23.48C47.0964 10.5276 36.6173 0.0810547 23.6974 0.0810547Z" fill="black"/>
<path fill-rule="evenodd" clip-rule="evenodd" d="M83.6751 12.5156H66.6222L64.5394 17.1368C65.2228 16.7789 65.5157 16.6487 66.134 16.3883C67.1103 15.9978 68.1517 15.7049 69.1931 15.5096C70.0718 15.3469 70.9179 15.2818 72.2522 15.2493C72.838 15.2168 73.4238 15.2168 73.9445 15.2168H76.4829L63.2051 34.1897H81.9503L84.0981 29.2431C83.3496 29.6662 83.0893 29.8289 82.5035 30.0892C81.4296 30.5774 80.2254 30.9354 78.9888 31.1632C78.0125 31.3259 76.9385 31.4235 75.5717 31.4561C75.1161 31.4561 74.5303 31.4886 73.8469 31.4886H70.5274L83.6751 12.5156Z" fill="black"/>
<path fill-rule="evenodd" clip-rule="evenodd" d="M140.041 34.1897C139.715 33.8969 139.585 33.7667 139.357 33.4412C139.227 33.2134 139.097 33.0182 139.032 32.7904C138.837 32.3022 138.739 31.5862 138.739 30.8703V16.551C138.739 15.0866 138.772 14.6961 138.967 14.1103C139.032 13.8825 139.13 13.6547 139.292 13.4268C139.52 13.0689 139.683 12.8736 140.106 12.5156H133.142C133.597 12.9061 133.727 13.0689 133.955 13.3618C134.085 13.5896 134.216 13.8174 134.281 14.0777C134.443 14.5984 134.508 15.1191 134.508 16.4209V30.7076C134.508 31.4561 134.378 32.2697 134.15 32.7904C134.053 33.0182 133.955 33.2134 133.792 33.4412C133.63 33.669 133.5 33.7992 133.142 34.1897H140.041Z" fill="black"/>
<path fill-rule="evenodd" clip-rule="evenodd" d="M161.813 12.7065C161.293 12.5438 161.065 12.4787 160.479 12.3485C159.242 12.0882 158.038 11.958 156.671 11.958C154.328 11.958 152.343 12.3485 150.488 13.097C149.382 13.5527 148.405 14.1384 147.494 14.8544C144.858 17.0348 143.394 20.159 143.394 23.7714C143.394 27.2536 144.793 30.2801 147.364 32.2978C149.479 33.9576 152.18 34.8037 155.467 34.8037C157.518 34.8037 159.405 34.5108 161.553 33.8274C161.618 33.7948 161.748 33.7623 161.911 33.7298V29.792C161.39 30.1499 161.228 30.2476 160.902 30.4428C160.479 30.6706 160.056 30.8985 159.568 31.0937C158.266 31.647 157.062 31.9073 155.793 31.9073C153.547 31.9073 151.627 31.0937 150.195 29.5642C148.796 28.0346 148.047 25.9518 148.047 23.5436C148.047 21.2655 148.763 19.1502 150 17.6857C150.553 17.0348 151.204 16.5141 151.953 16.0911C153.189 15.4076 154.589 15.0497 156.151 15.0497C157.485 15.0497 158.754 15.31 160.056 15.8307C160.87 16.1561 161.162 16.3189 161.846 16.807V12.7065H161.813Z" fill="black"/>
<path fill-rule="evenodd" clip-rule="evenodd" d="M180.819 24.3615V29.6662C180.819 30.8377 180.786 31.2608 180.721 31.8791C180.688 32.2046 180.591 32.53 180.493 32.8229C180.33 33.2134 180.07 33.604 179.712 33.9619C179.647 34.027 179.549 34.1247 179.419 34.2223H186.351C186.058 33.9294 185.961 33.8318 185.765 33.5389C185.603 33.3111 185.472 33.0507 185.375 32.8229C185.18 32.3022 185.114 31.9442 185.082 30.8703C185.082 30.2194 185.049 29.8614 185.049 29.7313L185.082 17.8203V16.5185C185.082 15.5747 185.147 14.8262 185.31 14.2404C185.375 13.9475 185.505 13.6872 185.668 13.4268C185.895 13.0363 186.058 12.8736 186.514 12.5156H179.452C179.842 12.8411 180.005 13.0038 180.233 13.3943C180.396 13.6547 180.526 13.8825 180.591 14.1428C180.754 14.6635 180.819 15.2818 180.819 16.4209V21.693H171.088V17.7552C171.088 16.551 171.121 15.77 171.153 15.1842C171.186 14.8262 171.251 14.5008 171.316 14.2404C171.479 13.7848 171.869 13.134 172.227 12.7434L172.455 12.5156H165.523C165.946 12.9387 166.044 13.0689 166.239 13.3618C166.402 13.5896 166.499 13.8174 166.597 14.1103C166.792 14.6635 166.825 14.9564 166.825 16.3883L166.857 17.7552V29.6336C166.857 30.8377 166.825 31.3584 166.76 31.9117C166.727 32.2046 166.662 32.4975 166.532 32.7578C166.369 33.2134 166.109 33.604 165.686 33.9619L165.458 34.1897H172.357C172.064 33.8643 171.967 33.7667 171.771 33.4738C171.641 33.2785 171.511 33.0507 171.414 32.7904C171.186 32.2371 171.121 31.8141 171.088 30.9028C171.088 30.4472 171.056 30.0241 171.056 29.6011V24.3615H180.819Z" fill="black"/>
<path fill-rule="evenodd" clip-rule="evenodd" d="M86.6367 12.5156C87.0598 12.8736 87.2225 13.0363 87.4178 13.3943C87.5479 13.6221 87.6456 13.8825 87.7432 14.1428C87.8408 14.4682 87.8734 14.7937 87.8734 15.1517C87.8734 15.3795 87.8734 15.8351 87.9059 16.486V23.9385C87.9059 26.1189 87.9385 26.8674 88.0035 27.7461C88.1337 29.3082 88.6219 30.6099 89.5331 31.7164C90.4443 32.8555 91.681 33.7341 93.178 34.2548C94.3496 34.6779 95.6513 34.8732 97.1158 34.8732C98.743 34.8732 100.338 34.6128 101.509 34.1897C102.746 33.7341 103.917 32.9531 104.731 32.0419C105.74 30.9354 106.293 29.5685 106.488 27.8437C106.586 26.8023 106.619 25.8911 106.619 23.971V16.3558C106.619 15.2493 106.716 14.5659 106.814 14.2079C107.042 13.4268 107.432 13.0038 107.79 12.7109C107.92 12.6133 107.985 12.5807 108.05 12.5156H101.639C101.9 12.9061 101.997 13.0689 102.128 13.4594C102.225 13.7197 102.258 13.9801 102.323 14.273C102.42 15.054 102.453 16.0303 102.453 17.8853V24.6219C102.453 26.5094 102.42 27.4207 102.258 28.2993C102.16 28.8851 101.965 29.4058 101.704 29.894C101.151 30.8052 100.207 31.4561 99.0359 31.749C98.5803 31.8791 98.0596 31.9117 97.5063 31.9117C96.3998 31.9117 95.4235 31.6839 94.5774 31.1957C94.0241 30.9028 93.6011 30.5123 93.2756 30.0567C92.6898 29.178 92.4946 28.2993 92.4946 26.0864L92.462 23.3527V17.8853C92.462 16.0303 92.4946 15.0215 92.5922 14.273C92.6573 13.6872 92.8526 13.199 93.1129 12.7109C93.1455 12.6783 93.178 12.6133 93.2431 12.5156H86.6367Z" fill="black"/>
<path fill-rule="evenodd" clip-rule="evenodd" d="M117.196 29.7646V30.8711C117.228 31.88 117.293 32.4007 117.489 32.8563C117.586 33.0841 117.717 33.3119 117.847 33.5072C118.042 33.7675 118.14 33.8651 118.432 34.2231H111.533C111.924 33.8651 112.054 33.735 112.249 33.4746C112.412 33.2794 112.542 33.019 112.64 32.7912C112.802 32.303 112.9 31.7173 112.9 30.7084V16.4868C112.9 15.3478 112.835 14.6643 112.672 14.1762C112.575 13.9158 112.444 13.6229 112.282 13.3951C112.086 13.0697 111.924 12.9395 111.566 12.5815H117.163C117.847 12.5815 118.53 12.5815 119.181 12.6141C120.906 12.6466 121.915 12.7768 122.891 13.0046C124.29 13.33 125.527 14.0135 126.406 14.9572C127.382 15.9661 127.87 17.1702 127.87 18.5045C127.87 19.0577 127.773 19.6435 127.61 20.1642C127.284 21.1405 126.764 21.9216 125.918 22.6376C125.169 23.2559 124.323 23.744 123.249 24.1671C122.858 24.3298 122.696 24.3624 122.273 24.4925L125.625 28.4629C126.048 28.951 126.568 29.5368 127.219 30.2202C128.228 31.3267 128.912 32.0101 129.66 32.7261C129.985 33.0515 130.311 33.3119 130.604 33.5722C130.897 33.8001 131.027 33.9302 131.385 34.2231H128.684C128.293 34.2231 127.903 34.2231 127.545 34.1906C126.601 34.158 126.015 34.0279 125.397 33.6699C124.681 33.2794 123.932 32.6936 123.151 31.88C122.924 31.6196 122.566 31.2291 122.11 30.7084C121.687 30.2528 121.394 29.8948 121.199 29.667L117.196 24.8505V29.7646ZM117.554 23.0606C117.879 23.0606 118.237 23.0281 118.693 22.963C119.864 22.8003 120.645 22.5399 121.426 22.0843C121.817 21.8565 122.175 21.5636 122.435 21.2707C122.989 20.6524 123.281 19.8063 123.281 18.8299C123.281 17.6909 122.891 16.7797 122.175 16.1614C121.752 15.8034 121.264 15.543 120.711 15.3803C119.897 15.1525 118.856 15.0223 117.782 15.0223H117.228V23.0606H117.554Z" fill="black"/>
</svg>
