<svg width="29" height="23" viewBox="0 0 29 23" fill="none" xmlns="http://www.w3.org/2000/svg">
<path d="M28.4883 2.32031H0.386719C0.300781 2.32031 0.214844 2.27734 0.128906 2.19141C0.0429688 2.10547 0 2.01953 0 1.93359V0.386719C0 0.300781 0.0429688 0.214844 0.128906 0.128906C0.214844 0.0429688 0.300781 0 0.386719 0H28.4883C28.5742 0 28.6602 0.0429688 28.7461 0.128906C28.832 0.214844 28.875 0.300781 28.875 0.386719V1.93359C28.875 2.01953 28.832 2.10547 28.7461 2.19141C28.6602 2.27734 28.5742 2.32031 28.4883 2.32031ZM28.4883 12.6328H0.386719C0.300781 12.6328 0.214844 12.5898 0.128906 12.5039C0.0429688 12.418 0 12.332 0 12.2461V10.6992C0 10.6133 0.0429688 10.5273 0.128906 10.4414C0.214844 10.3555 0.300781 10.3125 0.386719 10.3125H28.4883C28.5742 10.3125 28.6602 10.3555 28.7461 10.4414C28.832 10.5273 28.875 10.6133 28.875 10.6992V12.2461C28.875 12.332 28.832 12.418 28.7461 12.5039C28.6602 12.5898 28.5742 12.6328 28.4883 12.6328ZM28.4883 22.9453H0.386719C0.300781 22.9453 0.214844 22.9023 0.128906 22.8164C0.0429688 22.7305 0 22.6445 0 22.5586V21.0117C0 20.9258 0.0429688 20.8398 0.128906 20.7539C0.214844 20.668 0.300781 20.625 0.386719 20.625H28.4883C28.5742 20.625 28.6602 20.668 28.7461 20.7539C28.832 20.8398 28.875 20.9258 28.875 21.0117V22.5586C28.875 22.6445 28.832 22.7305 28.7461 22.8164C28.6602 22.9023 28.5742 22.9453 28.4883 22.9453Z" fill="white"/>
</svg>
